<?xml version="1.0" standalone="no"?>
<!DOCTYPE svg PUBLIC "-//W3C//DTD SVG 20010904//EN"
 "http://www.w3.org/TR/2001/REC-SVG-20010904/DTD/svg10.dtd">
<svg version="1.0" xmlns="http://www.w3.org/2000/svg"
 width="512.000000pt" height="512.000000pt" viewBox="0 0 512.000000 512.000000"
 preserveAspectRatio="xMidYMid meet">
<metadata>
Created by potrace 1.14, written by Peter Selinger 2001-2017
</metadata>
<g transform="translate(0.000000,512.000000) scale(0.100000,-0.100000)"
fill="#000000" stroke="none">
<path d="M3068 4646 c-62 -22 -125 -64 -155 -103 -16 -21 -94 -157 -172 -303
-79 -146 -154 -284 -167 -307 l-24 -42 36 15 c20 8 38 13 40 11 2 -2 -37 -78
-86 -168 -135 -243 -152 -281 -158 -354 l-5 -65 -36 20 c-20 10 -169 91 -332
179 -362 196 -404 210 -547 176 -93 -22 -116 -37 -247 -165 -301 -293 -846
-850 -810 -827 23 13 70 39 105 57 l65 32 -97 -99 c-114 -117 -142 -168 -142
-258 0 -103 6 -108 373 -356 591 -399 633 -429 619 -433 -7 -2 -41 -14 -75
-26 l-61 -22 -109 73 c-59 40 -249 169 -420 286 -304 208 -374 250 -393 238
-20 -13 -9 -54 34 -121 24 -38 126 -202 228 -364 193 -311 276 -422 382 -513
97 -82 953 -698 1015 -729 46 -24 66 -28 137 -28 73 0 89 3 146 33 55 29 83
56 235 231 143 164 172 202 167 221 -6 23 106 157 450 540 108 121 158 196
186 280 36 107 32 130 -73 465 -53 167 -95 305 -94 307 2 1 26 -17 53 -41 34
-30 54 -57 62 -84 10 -33 19 -43 55 -57 129 -53 191 -58 392 -35 408 48 367
40 361 65 -7 26 8 35 58 35 46 0 127 43 184 100 50 49 75 85 332 485 84 131
150 223 157 221 14 -6 179 245 199 302 27 75 8 180 -44 239 -31 36 -760 609
-841 661 -62 40 -171 92 -246 117 -83 28 -585 125 -644 125 -31 -1 -72 -7 -93
-14z m455 -71 c335 -67 397 -87 517 -168 41 -28 633 -490 738 -577 57 -46 90
-99 71 -111 -8 -4 -30 -6 -49 -4 -19 3 -91 9 -160 15 -214 18 -243 20 -305 26
-119 12 -258 80 -390 191 -38 33 -203 166 -365 297 -336 271 -390 319 -390
351 0 47 0 47 333 -20z m-358 -72 c118 -80 643 -532 554 -477 -20 12 -301 241
-451 366 -137 115 -177 135 -238 118 -57 -16 -95 -45 -130 -99 -18 -28 -36
-49 -38 -46 -12 12 75 121 113 142 59 33 138 32 190 -4z m-45 -24 c18 -7 87
-57 154 -111 511 -420 525 -432 601 -459 104 -38 296 -140 390 -207 l80 -56
-46 -7 c-71 -11 -157 -71 -217 -153 -21 -28 -112 -172 -205 -321 -92 -148
-171 -276 -176 -284 -7 -12 -17 -10 -55 13 -37 22 -44 30 -37 44 5 9 48 84 96
166 57 99 83 152 76 159 -5 5 -255 172 -555 371 l-546 361 104 190 c116 212
151 259 210 286 48 22 80 24 126 8z m-1457 -813 c64 -19 677 -364 677 -381 0
-8 -200 94 -445 225 -121 66 -242 124 -268 131 -130 32 -253 -20 -417 -177
-60 -59 -110 -103 -110 -99 0 16 188 208 236 241 101 69 222 92 327 60z m1537
-62 c33 -34 35 -40 35 -104 0 -62 -3 -72 -29 -99 -36 -38 -68 -46 -106 -26
-40 20 -60 63 -60 125 0 123 87 179 160 104z m-1554 3 c28 -7 237 -115 465
-239 488 -266 562 -311 587 -346 43 -62 52 -131 27 -202 -8 -23 -15 -44 -15
-46 0 -1 26 -17 58 -35 87 -49 86 -49 54 -73 -15 -11 -80 -77 -143 -146 -756
-819 -798 -863 -823 -856 -12 4 -53 11 -93 18 l-71 11 43 33 c23 18 51 44 61
57 11 14 118 132 239 263 297 322 441 479 448 491 4 6 -28 -1 -71 -15 -71 -24
-91 -26 -247 -26 -155 0 -176 2 -240 24 l-70 25 -31 95 c-20 62 -36 95 -45 94
-8 -1 -57 -11 -109 -22 -197 -43 -445 -67 -582 -56 l-76 7 -36 78 c-37 81 -78
211 -94 298 l-10 52 226 224 c232 231 280 267 377 291 67 16 111 17 171 1z
m2618 -238 c0 -71 -74 -162 -142 -175 -73 -15 -58 91 24 173 41 40 67 53 77
36 2 -5 2 -2 0 5 -2 9 5 12 20 10 19 -3 22 -9 21 -49z m14 -271 c30 -30 -2
-112 -67 -171 -48 -43 -93 -50 -111 -17 -22 41 49 157 115 186 38 17 48 17 63
2z m27 -346 c-13 -68 -97 -155 -143 -150 -25 3 -27 7 -26 44 1 78 106 180 157
153 15 -9 18 -17 12 -47z m-3352 -104 c56 -29 62 -125 11 -180 -88 -92 -242
-97 -275 -10 -47 122 139 256 264 190z m312 -202 c73 -31 82 -116 19 -186 -88
-97 -257 -91 -279 11 -9 38 24 110 63 138 72 51 135 63 197 37z m1613 -88 c39
-39 -8 -178 -83 -247 -95 -88 -171 -27 -120 97 49 116 157 196 203 150z
m-1258 -133 c64 -33 77 -123 26 -189 -40 -53 -104 -79 -178 -74 -53 4 -65 9
-89 36 -63 70 -22 181 81 226 45 20 123 20 160 1z m-1050 -305 c11 -11 24 -20
29 -20 16 0 119 -99 142 -136 55 -89 -47 -47 -150 62 -68 71 -89 114 -56 114
8 0 24 -9 35 -20z m2494 -102 c17 -48 -17 -131 -78 -194 -41 -43 -59 -54 -84
-54 -86 0 -57 149 48 244 52 46 99 48 114 4z m-860 -194 c49 -49 -18 -218
-109 -274 -97 -60 -137 22 -74 148 18 37 47 75 72 96 62 49 86 56 111 30z
m228 -498 c28 -40 -15 -157 -78 -217 -72 -68 -124 -61 -124 17 0 120 153 271
202 200z m-877 -176 c45 -31 126 -114 145 -149 16 -31 0 -47 -31 -31 -50 26
-125 90 -161 138 -65 85 -43 104 47 42z"/>
<path d="M3433 4494 c-3 -9 2 -23 12 -32 17 -16 17 -16 12 1 -4 12 -1 17 11
18 31 2 57 -3 85 -17 15 -8 27 -12 27 -9 0 9 -103 55 -123 55 -10 0 -20 -7
-24 -16z"/>
<path d="M3881 4421 c-10 -7 -11 -13 -2 -27 6 -11 11 -13 11 -6 0 16 42 15 83
-2 18 -7 55 -30 82 -51 l50 -38 -35 37 c-50 53 -161 104 -189 87z"/>
<path d="M3921 4238 c0 -13 3 -17 6 -10 8 19 51 14 107 -13 41 -20 46 -21 26
-6 -25 20 -102 51 -127 51 -7 0 -13 -10 -12 -22z"/>
<path d="M4105 4170 c10 -11 20 -20 23 -20 3 0 -3 9 -13 20 -10 11 -20 20 -23
20 -3 0 3 -9 13 -20z"/>
<path d="M3955 4070 c-5 -8 10 -50 19 -50 1 0 2 10 2 23 -1 18 4 22 29 20 25
-2 27 -1 10 7 -27 12 -53 12 -60 0z"/>
<path d="M4395 4010 c-4 -6 7 -10 25 -10 41 0 121 -41 165 -85 19 -20 35 -31
35 -26 0 16 -80 79 -134 106 -53 27 -81 31 -91 15z"/>
<path d="M1469 3360 c-37 -19 -99 -83 -99 -101 0 -5 14 6 32 26 41 47 98 76
153 77 58 1 102 -18 120 -51 11 -20 14 -22 15 -8 0 10 -13 32 -29 48 -27 26
-36 29 -93 29 -42 -1 -75 -7 -99 -20z"/>
<path d="M1805 3171 c-40 -18 -115 -91 -115 -113 0 -6 13 7 29 29 55 77 176
107 249 63 17 -11 32 -25 32 -32 0 -6 3 -9 6 -6 10 11 -16 48 -46 63 -39 20
-106 19 -155 -4z"/>
<path d="M2179 2976 c-20 -7 -50 -23 -67 -35 -32 -22 -78 -88 -69 -97 3 -3 8
3 12 14 3 11 23 36 45 56 84 76 210 73 261 -6 17 -27 19 -29 14 -8 -21 74
-108 108 -196 76z"/>
</g>
</svg>
